# xmcd
#
# Track frame offsets:
#	150
#	26982
#	55912
#	80915
#	108207
#	127632
#	140712
#	155332
#	175640
#	184920
#	194570
#	200602
#	211445
#	225407
#	243390
#	268215
#	281627
#	295207
#	305710
#	330775
#
# Disc length: 4616 seconds
#
# Revision: 3
# Processed by: cddbd v1.4PL0 Copyright (c) Steve Scherf et al.
# Submitted via: audiograbber 1.80.04
#
DISCID=2c120614
DTITLE=In the butchers backyard - CD1
DYEAR=1900
DGENRE=
TTITLE0=Morthond - First gate
TTITLE1=Morthond - Second gate
TTITLE2=Morthond - Third gate
TTITLE3=Megaptera - Stroke
TTITLE4=Megaptera - Metal process in work
TTITLE5=Defekt - Ex cre mental pt.II
TTITLE6=Defekt - Intellekt: kollaps
TTITLE7=Defekt - Entschuldigung, wo ist mein kopf? Teil 3
TTITLE8=ConSono - Onus uteri
TTITLE9=ConSono - Nefarior
TTITLE10=ConSono - Insect dawn
TTITLE11=ConSono - White light
TTITLE12=Raison d'etre - Aprés nous le d luge II
TTITLE13=Raison d'etre - Memento mori
TTITLE14=Raison d'etre - Death brightens with sorrow
TTITLE15=Systema - Zyringe
TTITLE16=Systema - Lost in lies
TTITLE17=Systema - Deeper movements in the ocean
TTITLE18=Systema - Let me come inside
TTITLE19=En Halvkokt i Folie - Den mäktige Tor
EXTD=
EXTT0=
EXTT1=
EXTT2=
EXTT3=
EXTT4=
EXTT5=
EXTT6=
EXTT7=
EXTT8=
EXTT9=
EXTT10=
EXTT11=
EXTT12=
EXTT13=
EXTT14=
EXTT15=
EXTT16=
EXTT17=
EXTT18=
EXTT19=
PLAYORDER=
